<svg width="155" height="42" viewBox="0 0 155 42" fill="none" xmlns="http://www.w3.org/2000/svg">
<path d="M0.99033 18.4405C2.22937 13.4605 5.09898 9.03799 9.14219 5.87751C13.1855 2.71696 18.1699 1 23.3018 1C28.4336 1 33.4181 2.71696 37.4613 5.87751C41.5046 9.03799 44.3741 13.4605 45.6132 18.4405H43.5979C40.1982 18.3905 36.8681 19.4065 34.0754 21.346C33.9142 21.4627 33.7459 21.5693 33.5716 21.6651H33.3364C33.1621 21.5693 32.9938 21.4627 32.8326 21.346C30.0152 19.4514 26.6969 18.4395 23.3018 18.4395C19.9066 18.4395 16.5883 19.4514 13.7709 21.346C13.6097 21.4627 13.4414 21.5693 13.2671 21.6651H13.032C12.8576 21.5693 12.6893 21.4627 12.5281 21.346C9.73537 19.4065 6.40536 18.3905 3.00566 18.4405H0.99033ZM39.9703 28.9707C41.0048 28.165 42.287 27.7435 43.5979 27.7782H46.3018V22.3872H43.5979C41.289 22.3593 39.033 23.078 37.1656 24.4362C36.1147 25.2109 34.8436 25.6289 33.538 25.6289C32.2324 25.6289 30.9612 25.2109 29.9104 24.4362C27.9956 23.1033 25.7187 22.3887 23.3857 22.3887C21.0528 22.3887 18.7758 23.1033 16.8611 24.4362C15.8103 25.2109 14.5391 25.6289 13.2335 25.6289C11.9279 25.6289 10.6567 25.2109 9.60588 24.4362C7.7155 23.0605 5.42709 22.341 3.08964 22.3872H0.301758V27.7782H3.00566C4.31649 27.7435 5.59873 28.165 6.63327 28.9707C8.54448 30.3045 10.8189 31.0196 13.1495 31.0196C15.4801 31.0196 17.7546 30.3045 19.6658 28.9707C20.7016 28.1675 21.9829 27.7463 23.2934 27.7782C24.6047 27.7406 25.8878 28.1625 26.921 28.9707C28.8357 30.3036 31.1127 31.0181 33.4456 31.0181C35.7785 31.0181 38.0555 30.3036 39.9703 28.9707ZM39.9703 38.6107C41.0048 37.805 42.287 37.3835 43.5979 37.4183H46.3018V32.0272H43.5979C41.289 31.9994 39.033 32.718 37.1656 34.0762C36.1147 34.8509 34.8436 35.2689 33.538 35.2689C32.2324 35.2689 30.9612 34.8509 29.9104 34.0762C27.9956 32.7434 25.7187 32.0289 23.3857 32.0289C21.0528 32.0289 18.7758 32.7434 16.8611 34.0762C15.8103 34.8509 14.5391 35.2689 13.2335 35.2689C11.9279 35.2689 10.6567 34.8509 9.60588 34.0762C7.7155 32.7007 5.42709 31.9811 3.08964 32.0272H0.301758V37.4183H3.00566C4.31649 37.3835 5.59873 37.805 6.63327 38.6107C8.54448 39.9445 10.8189 40.6596 13.1495 40.6596C15.4801 40.6596 17.7546 39.9445 19.6658 38.6107C20.7016 37.8076 21.9829 37.3864 23.2934 37.4183C24.6047 37.3806 25.8878 37.8025 26.921 38.6107C28.8357 39.9436 31.1127 40.6581 33.4456 40.6581C35.7785 40.6581 38.0555 39.9436 39.9703 38.6107Z" fill="#03045E"/>
<path d="M75.58 34.5H68.76L59.84 9.04H65.63L69.7 21.32C70.1867 22.8733 70.6834 24.58 71.19 26.44C71.69 28.3067 72.2167 30.3433 72.77 32.55H71.65C72.1967 30.3167 72.7067 28.2767 73.18 26.43C73.66 24.5767 74.1334 22.8733 74.6 21.32L78.53 9.04H84.29L75.58 34.5ZM90.17 34.5H85.04V15.39H90.17V34.5ZM87.61 12.9C86.83 12.9 86.1667 12.6433 85.62 12.13C85.0734 11.6167 84.8 10.9967 84.8 10.27C84.8 9.53667 85.0734 8.91333 85.62 8.4C86.1667 7.88667 86.83 7.63 87.61 7.63C88.3834 7.63 89.0467 7.88667 89.6 8.4C90.1534 8.90667 90.43 9.53 90.43 10.27C90.43 10.9967 90.1534 11.6167 89.6 12.13C89.0467 12.6433 88.3834 12.9 87.61 12.9ZM103.46 34.5H97.64L90.6 15.39H96.05L99.26 25.31C99.6467 26.55 99.9867 27.8033 100.28 29.07C100.567 30.33 100.863 31.64 101.17 33H100.08C100.373 31.64 100.663 30.33 100.95 29.07C101.237 27.8033 101.573 26.55 101.96 25.31L105.14 15.39H110.52L103.46 34.5ZM116.09 34.5H110.96V15.39H116.09V34.5ZM113.53 12.9C112.757 12.9 112.097 12.6433 111.55 12.13C110.997 11.6167 110.72 10.9967 110.72 10.27C110.72 9.53667 110.997 8.91333 111.55 8.4C112.097 7.88667 112.757 7.63 113.53 7.63C114.303 7.63 114.967 7.88667 115.52 8.4C116.073 8.90667 116.35 9.53 116.35 10.27C116.35 10.9967 116.073 11.6167 115.52 12.13C114.967 12.6433 114.303 12.9 113.53 12.9ZM123.51 34.88C122.297 34.88 121.21 34.6667 120.25 34.24C119.29 33.8067 118.533 33.1667 117.98 32.32C117.427 31.4733 117.15 30.4167 117.15 29.15C117.15 28.09 117.347 27.2 117.74 26.48C118.133 25.7667 118.667 25.1933 119.34 24.76C120.02 24.3267 120.79 23.9967 121.65 23.77C122.51 23.5433 123.413 23.3833 124.36 23.29C125.467 23.1767 126.36 23.07 127.04 22.97C127.713 22.8767 128.207 22.7233 128.52 22.51C128.833 22.3033 128.99 21.9933 128.99 21.58V21.49C128.99 20.9433 128.877 20.4833 128.65 20.11C128.423 19.7367 128.087 19.45 127.64 19.25C127.2 19.05 126.653 18.95 126 18.95C125.34 18.95 124.767 19.05 124.28 19.25C123.787 19.45 123.387 19.7133 123.08 20.04C122.773 20.3733 122.547 20.7433 122.4 21.15L117.7 20.37C118.027 19.2633 118.573 18.3233 119.34 17.55C120.1 16.77 121.047 16.1767 122.18 15.77C123.313 15.3567 124.587 15.15 126 15.15C127.04 15.15 128.043 15.2733 129.01 15.52C129.977 15.7667 130.847 16.1467 131.62 16.66C132.387 17.1733 132.993 17.84 133.44 18.66C133.893 19.48 134.12 20.47 134.12 21.63V34.5H129.27V31.85H129.09C128.783 32.4433 128.373 32.9633 127.86 33.41C127.347 33.8633 126.73 34.22 126.01 34.48C125.283 34.7467 124.45 34.88 123.51 34.88ZM124.96 31.27C125.767 31.27 126.477 31.11 127.09 30.79C127.697 30.47 128.17 30.0367 128.51 29.49C128.857 28.9433 129.03 28.3333 129.03 27.66V25.6C128.877 25.7133 128.647 25.8133 128.34 25.9C128.033 25.9933 127.693 26.0733 127.32 26.14C126.94 26.2133 126.57 26.2767 126.21 26.33C125.843 26.39 125.517 26.4367 125.23 26.47C124.603 26.5567 124.05 26.7033 123.57 26.91C123.097 27.1167 122.727 27.3867 122.46 27.72C122.2 28.06 122.07 28.49 122.07 29.01C122.07 29.5033 122.197 29.9167 122.45 30.25C122.697 30.59 123.033 30.8433 123.46 31.01C123.887 31.1833 124.387 31.27 124.96 31.27ZM141.35 23.44V34.5H136.22V15.39H141.06L141.14 20.16H140.83C141.33 18.5667 142.09 17.3333 143.11 16.46C144.13 15.5867 145.45 15.15 147.07 15.15C148.39 15.15 149.54 15.44 150.52 16.02C151.5 16.5933 152.263 17.42 152.81 18.5C153.357 19.5733 153.63 20.8567 153.63 22.35V34.5H148.51V23.24C148.51 22.0533 148.203 21.1233 147.59 20.45C146.983 19.7767 146.137 19.44 145.05 19.44C144.337 19.44 143.697 19.5967 143.13 19.91C142.57 20.2233 142.133 20.6767 141.82 21.27C141.507 21.8633 141.35 22.5867 141.35 23.44Z" fill="#03045E"/>
</svg>
